# xmcd CD database file
#
# Track frame offsets:
#	150
#	15517
#	36255
#	58226
#	77804
#	96936
#
# Disc length: 1660 seconds
#
# Revision: 1
# Processed by: cddbd v1.4PL0 Copyright (c) Steve Scherf et al.
# Submitted via: CDex 1.50
#
DISCID=46067a06
DTITLE=Test Type Trio - Prototype
DYEAR=2000
DGENRE=Jazz
TTITLE0=Intro
TTITLE1=Light June Ethane
TTITLE2=Sleep On It
TTITLE3=Spondolos
TTITLE4=Jailbait
TTITLE5=Jungle Opus 9
EXTD=YEAR: 2000
EXTT0=
EXTT1=
EXTT2=
EXTT3=
EXTT4=
EXTT5=
PLAYORDER=
